<svg xmlns="http://www.w3.org/2000/svg" xmlns:xlink="http://www.w3.org/1999/xlink" width="64.391" height="71.183" viewBox="0 0 64.391 71.183"><defs><linearGradient id="a" x1="0.963" y1="0.727" x2="-0.123" y2="0.061" gradientUnits="objectBoundingBox"><stop offset="0" stop-color="#278ef8"/><stop offset="1" stop-color="#6202a1"/></linearGradient></defs><g transform="translate(1.39 1.392)"><path d="M91.814,76.585H88.107L79.231,87.407l-4.792,5.842s2.172,4.782-1.748,7.526c-3.192,2.235-7.861-1.038-11.815,2.741-4.209-15.781,7.873-14.488,7.873-14.488l4.2-6.28,4.124-6.162H38.656a4.226,4.226,0,0,0-4.226,4.226v28.006H96.04V80.811A4.226,4.226,0,0,0,91.814,76.585Z" transform="translate(-34.43 -67.329)" fill="#fff"/><path d="M34.429,316.327a4.226,4.226,0,0,0,4.226,4.226H91.813a4.226,4.226,0,0,0,4.226-4.226v-7.9H34.429Z" transform="translate(-34.429 -266.938)" fill="#fdad21"/><path d="M217.783,405.357h10.628l-2.31-9.7h-6.007Z" transform="translate(-192.292 -342.038)" fill="#cbcaf3"/><path d="M166.866,465.45a2.815,2.815,0,0,0-2.815,2.815v2.268h25.568v-2.268a2.815,2.815,0,0,0-2.815-2.815H166.866Z" transform="translate(-146.03 -402.131)" fill="#10fec4"/><path d="M317.786,30.087l8.876-10.822,1.3-1.583a4.695,4.695,0,1,0-7.532-5.588l-4.8,7.171-4.124,6.162Z" transform="translate(-272.985 -10.01)" fill="#c81d25"/><path d="M219.137,180.409c3.954-3.779,8.623-.507,11.815-2.741,3.92-2.744,1.748-7.526,1.748-7.526l-5.69-4.222S214.927,164.627,219.137,180.409Z" transform="translate(-192.691 -144.222)" fill="#fdad21"/><path d="M285.482,120.909l-4.2,6.28,5.69,4.222,4.792-5.842Z" transform="translate(-246.961 -105.491)" fill="#fff"/></g><path d="M83.2,9.257H82.36A6.085,6.085,0,0,0,72.108,2.7L67.722,9.257H30.046a5.623,5.623,0,0,0-5.616,5.616V50.781A5.623,5.623,0,0,0,30.046,56.4H51.862L50.213,63.32H46.656a4.21,4.21,0,0,0-4.2,4.2V68.4H38.065a1.39,1.39,0,1,0,0,2.781h37.12a1.39,1.39,0,0,0,0-2.781H70.8v-.878a4.21,4.21,0,0,0-4.2-4.2H63.037L61.389,56.4H83.2a5.623,5.623,0,0,0,5.616-5.616V14.874A5.623,5.623,0,0,0,83.2,9.257ZM63.284,33.7c-2.174,1.522-6.246-.547-10.135,1.528C52.2,30.3,52.8,25.662,57.738,24.638a8.85,8.85,0,0,1,1.911-.182l5.029,3.732c.73,2.123.456,4.215-1.393,5.51Zm1.4-14.9,3.935,2.92-3.026,3.69-3.563-2.644ZM74.419,4.25a3.3,3.3,0,1,1,5.3,3.934L70.386,19.564l-4.153-3.081Zm-6.4,63.276V68.4H45.231v-.878A1.426,1.426,0,0,1,46.656,66.1H66.595a1.426,1.426,0,0,1,1.424,1.424Zm-7.84-4.2H53.072L54.72,56.4h3.811ZM86.04,50.781A2.839,2.839,0,0,1,83.2,53.617H30.046a2.839,2.839,0,0,1-2.836-2.836V44.27h3.973a1.39,1.39,0,0,0,0-2.781H27.21V14.874a2.839,2.839,0,0,1,2.836-2.836H65.862l-6.448,9.637a9.5,9.5,0,0,0-7.225,3.052c-2.423,2.829-2.849,7.273-1.265,13.21a1.391,1.391,0,0,0,2.3.647c3.595-3.435,8.072.312,12.082-2.933a7.281,7.281,0,0,0,2.1-8.076L80.155,12.038H83.2a2.839,2.839,0,0,1,2.836,2.836V41.49H42.305a1.39,1.39,0,1,0,0,2.781H86.04Z" transform="translate(-24.43 0)" fill="url(#a)"/><path d="M104.153,298.45a1.39,1.39,0,1,0,1.635,1.092A1.389,1.389,0,0,0,104.153,298.45Z" transform="translate(-92.107 -256.934)" fill="url(#a)"/></svg>