<svg xmlns="http://www.w3.org/2000/svg" xmlns:xlink="http://www.w3.org/1999/xlink" width="75.903" height="67.515" viewBox="0 0 75.903 67.515"><defs><linearGradient id="a" x1="0.5" x2="0.5" y2="1" gradientUnits="objectBoundingBox"><stop offset="0" stop-color="#6202a1"/><stop offset="1" stop-color="#027bce"/></linearGradient></defs><g transform="translate(0 -26.833)"><g transform="translate(0.884 33.083)"><path d="M79.424,66.822a1.25,1.25,0,0,0-1.25,1.25v57.514H6.906a1.25,1.25,0,1,0,0,2.5H79.424a1.25,1.25,0,0,0,1.25-1.25V68.072A1.25,1.25,0,0,0,79.424,66.822Z" transform="translate(-5.656 -66.822)" fill="url(#a)"/></g><g transform="translate(29.641 44.336)"><path d="M205.91,138.822h-15a1.25,1.25,0,0,0-1.25,1.25v42.511a1.25,1.25,0,0,0,1.25,1.25h15a1.25,1.25,0,0,0,1.25-1.25V140.072A1.25,1.25,0,0,0,205.91,138.822Zm-1.25,42.511h-12.5v-40.01h12.5Z" transform="translate(-189.656 -138.822)" fill="url(#a)"/></g><g transform="translate(52.147 31.833)"><path d="M349.91,58.822h-15a1.25,1.25,0,0,0-1.25,1.25v55.014a1.25,1.25,0,0,0,1.25,1.25h15a1.25,1.25,0,0,0,1.25-1.25V60.072A1.25,1.25,0,0,0,349.91,58.822Zm-1.25,55.014h-12.5V61.323h12.5Z" transform="translate(-333.656 -58.822)" fill="url(#a)"/></g><g transform="translate(0 26.833)"><path d="M38.523,26.84a1.242,1.242,0,0,0-.264,0L27.007,28.09a1.25,1.25,0,0,0-.75,2.126l4.117,4.117-9.485,9.485-2.867-2.867a1.25,1.25,0,0,0-1.768,0l-15,15c-.69,0-1.25.193-1.25.884s.56,1.25,1.25.884a1.25,1.25,0,0,0,1.768,0L17.138,43.6,20,46.47a1.25,1.25,0,0,0,1.768,0L32.142,36.1l4.117,4.117a1.25,1.25,0,0,0,2.126-.75l1.25-11.253A1.25,1.25,0,0,0,38.523,26.84Zm-2.336,9.77-6.323-6.323,7.113-.79Z" transform="translate(0 -26.833)" fill="url(#a)"/><path d="M3.028,0,6.7,6.061,0,8.4Z" transform="translate(28.62 6.213) rotate(-65)" fill="#fff"/></g><g transform="translate(7.136 33.829)"><g transform="translate(0 25.51)"><path d="M61.91,234.822h-15a1.25,1.25,0,0,0-1.25,1.25v27.507a1.25,1.25,0,0,0,1.25,1.25h15a1.25,1.25,0,0,0,1.25-1.25V236.072A1.25,1.25,0,0,0,61.91,234.822Zm-1.25,27.507h-12.5V237.323h12.5Z" transform="translate(-45.656 -234.822)" fill="url(#a)"/></g><rect width="13.966" height="25.604" transform="translate(1.92 27.932)" fill="#c81d25"/><rect width="13.966" height="40.734" transform="translate(24.033 12.802)" fill="#fdad21"/><rect width="12.802" height="53.536" transform="translate(47.31 0)" fill="#10fec4"/></g><g transform="translate(12.137 79.344)"><g transform="translate(0 0)"><path d="M78.906,362.822a1.25,1.25,0,0,0-1.25,1.25v2.5a1.25,1.25,0,0,0,2.5,0v-2.5A1.25,1.25,0,0,0,78.906,362.822Z" transform="translate(-77.656 -362.822)" fill="#fff"/></g></g><g transform="translate(12.137 69.342)"><g transform="translate(0 0)"><path d="M78.906,298.822a1.25,1.25,0,0,0-1.25,1.25v5a1.25,1.25,0,1,0,2.5,0v-5A1.25,1.25,0,0,0,78.906,298.822Z" transform="translate(-77.656 -298.822)" fill="#fff"/></g></g><g transform="translate(34.642 79.344)"><g transform="translate(0 0)"><path d="M222.906,362.822a1.25,1.25,0,0,0-1.25,1.25v2.5a1.25,1.25,0,0,0,2.5,0v-2.5A1.25,1.25,0,0,0,222.906,362.822Z" transform="translate(-221.656 -362.822)" fill="#fff"/></g></g><g transform="translate(34.642 61.84)"><g transform="translate(0 0)"><path d="M222.906,250.822a1.25,1.25,0,0,0-1.25,1.25v12.5a1.25,1.25,0,1,0,2.5,0v-12.5A1.25,1.25,0,0,0,222.906,250.822Z" transform="translate(-221.656 -250.822)" fill="#fff"/></g></g><g transform="translate(57.148 79.344)"><g transform="translate(0 0)"><path d="M366.906,362.822a1.25,1.25,0,0,0-1.25,1.25v2.5a1.25,1.25,0,0,0,2.5,0v-2.5A1.25,1.25,0,0,0,366.906,362.822Z" transform="translate(-365.656 -362.822)" fill="#fff"/></g></g><g transform="translate(57.148 49.337)"><path d="M366.906,170.822a1.25,1.25,0,0,0-1.25,1.25v25.006a1.25,1.25,0,0,0,2.5,0V172.072A1.25,1.25,0,0,0,366.906,170.822Z" transform="translate(-365.656 -170.822)" fill="#fff"/></g></g></svg>